<svg xmlns="http://www.w3.org/2000/svg" width="1995" height="939" viewBox="0 0 1995 939"><path fill="#ebe2d0" d="M1077 587.8H932V161.9c0-5.6 2.6-10.1 5.8-10 55.1 1.4 102.1 22 131.8 5.3 3.7-2.1 7.4 2.7 7.4 9.5z"/><path fill="#582c4e" d="M1004.4 637.3h-.3c-93.9 23.6-118.8 43.6-92.8 84.6 10-42 68-41 70-33-5 32 23 77 23 77s28-45 23-77c2-8 60-9 70 33 25.9-41 1-61-92.9-84.6z"/><path fill="#633c59" d="M773.3 404.8c24 102.6 246 140.8 230 262.1-196-24.7-256-92.1-230-262.1z"/><path fill="#633c59" d="M1235.3 404.8c-24 102.6-246 140.8-230 262.1 196-24.7 256-92.1 230-262.1z"/><path fill="#582c4e" d="M1003.3 411.5c-50 64.4-146 185.7 0 255.4 128-95.9 0-181.2 0-255.4z"/><path fill="#ebe2d0" d="M1005 108.1h-6.8c13.1 22.7 10 48.2 5.6 75.8h6.9c1.2-27.6 4.9-53-5.7-75.8z"/><path fill="#c05d77" d="M1002.5 1c38.8 54.6 45.7 127.6 0 127.6-66.8-21.2 14.4-91.5 0-127.6z"/><path fill="#b38d97" d="M248 30.5c-196 143-305 441-17 585 295 101 836.3 174.3 860.3 302.3l11 21c0-191.9-597.4-238.4-847.3-341.3-243-100-236.7-361 3-565z"/><path fill="#582c4e" d="M734.3 724.6c-56.7-25.2-76 97-76 97 100-16 94-89 76-97zm-322-70.8c-56.7-25.2-76 97-76 97 100-16 94-89 76-97zM75 272c65.1-36.7-41.2-143.7-41.2-143.7C-21.7 236.8 54.3 283.7 75 272zM181.7 95.8c1-83.8 109-6.4 127.8-11.3-34 61.8-128.3 51.3-127.8 11.3zm373.6 603.3c-48-33 2-108-15-130 77 52 43 144 15 130zm-332-101.2c-35.1-46.5 36.2-101.8 27-128 56.5 73.7-4.9 150.2-27 128zm-121-106.3c-4-47-95-63-95-84-14 38 66 135 95 84z"/><path fill="#b38d97" d="M1746.1 30.5c196 143 305 441 17 585-295 101-836.3 174.3-860.3 302.3l-11 21c0-191.9 597.5-238.4 847.3-341.3 243-100 236.7-361-3-565z"/><path fill="#582c4e" d="M1259.8 724.6c56.7-25.2 76 97 76 97-100-16-94-89-76-97zm322-70.8c56.7-25.2 76 97 76 97-100-16-94-89-76-97zM1919.1 272c-65.1-36.7 41.2-143.7 41.2-143.7 55.5 108.5-20.5 155.4-41.2 143.7zM1812.4 95.8c-.9-83.8-109-6.4-127.8-11.3 34 61.8 128.3 51.3 127.8 11.3zm-373.6 603.3c48-33-2-108 15-130-77 52-43 144-15 130zm332-101.2c35.1-46.5-36.1-101.8-27-128-56.5 73.7 4.9 150.2 27 128zm121-106.3c4-47 95-63 95-84 14 38-66 135-95 84z"/></svg>