<svg xmlns="http://www.w3.org/2000/svg"><symbol id="banner" viewBox="0 0 1995 939"><path fill="#ebe2d0" d="M1077 587.8H932V161.9c0-5.6 2.6-10.1 5.8-10 55.1 1.4 102.1 22 131.8 5.3 3.7-2.1 7.4 2.7 7.4 9.5z"/><path fill="#582c4e" d="M1004.4 637.3h-.3c-93.9 23.6-118.8 43.6-92.8 84.6 10-42 68-41 70-33-5 32 23 77 23 77s28-45 23-77c2-8 60-9 70 33 25.9-41 1-61-92.9-84.6z"/><path fill="#633c59" d="M773.3 404.8c24 102.6 246 140.8 230 262.1-196-24.7-256-92.1-230-262.1z"/><path fill="#633c59" d="M1235.3 404.8c-24 102.6-246 140.8-230 262.1 196-24.7 256-92.1 230-262.1z"/><path fill="#582c4e" d="M1003.3 411.5c-50 64.4-146 185.7 0 255.4 128-95.9 0-181.2 0-255.4z"/><path fill="#ebe2d0" d="M1005 108.1h-6.8c13.1 22.7 10 48.2 5.6 75.8h6.9c1.2-27.6 4.9-53-5.7-75.8z"/><path fill="#c05d77" d="M1002.5 1c38.8 54.6 45.7 127.6 0 127.6-66.8-21.2 14.4-91.5 0-127.6z"/><path fill="#b38d97" d="M248 30.5c-196 143-305 441-17 585 295 101 836.3 174.3 860.3 302.3l11 21c0-191.9-597.4-238.4-847.3-341.3-243-100-236.7-361 3-565z"/><path fill="#582c4e" d="M734.3 724.6c-56.7-25.2-76 97-76 97 100-16 94-89 76-97zm-322-70.8c-56.7-25.2-76 97-76 97 100-16 94-89 76-97zM75 272c65.1-36.7-41.2-143.7-41.2-143.7C-21.7 236.8 54.3 283.7 75 272zM181.7 95.8c1-83.8 109-6.4 127.8-11.3-34 61.8-128.3 51.3-127.8 11.3zm373.6 603.3c-48-33 2-108-15-130 77 52 43 144 15 130zm-332-101.2c-35.1-46.5 36.2-101.8 27-128 56.5 73.7-4.9 150.2-27 128zm-121-106.3c-4-47-95-63-95-84-14 38 66 135 95 84z"/><path fill="#b38d97" d="M1746.1 30.5c196 143 305 441 17 585-295 101-836.3 174.3-860.3 302.3l-11 21c0-191.9 597.5-238.4 847.3-341.3 243-100 236.7-361-3-565z"/><path fill="#582c4e" d="M1259.8 724.6c56.7-25.2 76 97 76 97-100-16-94-89-76-97zm322-70.8c56.7-25.2 76 97 76 97-100-16-94-89-76-97zM1919.1 272c-65.1-36.7 41.2-143.7 41.2-143.7 55.5 108.5-20.5 155.4-41.2 143.7zM1812.4 95.8c-.9-83.8-109-6.4-127.8-11.3 34 61.8 128.3 51.3 127.8 11.3zm-373.6 603.3c48-33-2-108 15-130-77 52-43 144-15 130zm332-101.2c35.1-46.5-36.1-101.8-27-128-56.5 73.7 4.9 150.2 27 128zm121-106.3c4-47 95-63 95-84 14 38-66 135-95 84z"/></symbol><symbol id="candle" viewBox="0 0 360 360"><path fill="none" stroke="#231f20" stroke-miterlimit="10" stroke-width=".5" d="M0 0h360v360H0z"/><path fill="#ebe2d0" d="M180.2 48.3h-5.6c10.7 18.7 8.2 39.6 4.6 62.3h5.6c1-22.7 4-43.6-4.6-62.3z"/><rect width="247.3" height="213.33" x="56.7" y="101.7" fill="#c05d77" rx="10.4" ry="10.4"/><path fill="#c05d77" d="M179.1 19.2c19.4 27.3 22.8 63.8 0 63.8-33.4-10.7 7.2-45.7 0-63.8z"/></symbol><symbol id="cart" viewBox="0 0 135 135"><circle cx="63.8" cy="64.5" r="52" fill="#a6dace"/><path fill="#582c4e" d="M22.6 50.5h82.6v5.21H22.6z"/><path fill="none" stroke="#582c4e" stroke-miterlimit="10" stroke-width="2.23" d="M90.2 88.8H38.9l-7.8-35.7H98l-7.8 35.7zm-26-36v35.7m28.3-9H37.4m-3.7-14.1h61.7M82.1 52.8l-5.2 35.7M43.4 52.8l6.7 35.7"/><circle cx="50.4" cy="91.8" r="3.7" fill="#582c4e"/><circle cx="76.5" cy="91.8" r="3.7" fill="#582c4e"/></symbol><symbol id="facebook" viewBox="0 0 135 135"><circle cx="63.8" cy="64.5" r="52" fill="#a6dace"/><path fill="#582c4e" d="M76.5 37v9.4H70a2 2 0 0 0-1.9 1.9V55h8.4l-.8 9.5h-7.6v27.3H56.5V64.5h-5.3v-9.8l5.3-.2V47c.9-5.7 3.8-9.4 9.6-10z"/></symbol><symbol id="instagram" viewBox="0 0 135 135"><circle cx="65.2" cy="67.5" r="52" fill="#a6dace"/><path fill="#582c4e" d="M34.1 50v34.7A14.2 14.2 0 0 0 48 98.9h34.7c7.6 0 13.8-6.6 14-14V50.2a14.2 14.2 0 0 0-14-14.1H48A13.9 13.9 0 0 0 34.1 50zm43.1 42.6H53.7c-9.5 0-13.4-5.8-13.4-13.5V55.7c0-7.7 5.6-13.5 13.3-13.5h23.5c7.6 0 14.1 3.9 13.8 13.4v23.5a13.5 13.5 0 0 1-13.7 13.5z"/><path fill="#582c4e" d="M65.6 51.6a16.1 16.1 0 1 0 16.1 16.1 16.1 16.1 0 0 0-16.1-16.1zm0 26.4a10.3 10.3 0 1 1 10.3-10.3A10.3 10.3 0 0 1 65.6 78z"/><circle cx="82.1" cy="51.2" r="3.5" fill="#582c4e"/></symbol><symbol id="search" viewBox="0 0 135 135"><circle cx="65.2" cy="67.5" r="52" fill="#a6dace"/><path fill="#582c4e" d="M46.3 48.6a19.1 19.1 0 0 0 24.1 29.5L83 90.7a2.4 2.4 0 0 0 3.5 0l1.9-1.9a2.4 2.4 0 0 0 0-3.5L75.9 72.7a19.2 19.2 0 0 0-29.6-24.1zM68 70.3A11.5 11.5 0 1 1 68 54a11.5 11.5 0 0 1 0 16.3z"/></symbol><symbol id="twitter" viewBox="0 0 135 135"><circle cx="63.8" cy="64.5" r="52" fill="#a6dace"/><path fill="#582c4e" d="M91.4 43.1a29.4 29.4 0 0 1-7.5 2.9c-3.8-6.3-23.3-6.1-20.5 10.8-10.8.6-22.7-8.9-24.6-12.4-5 7.3 1.6 15.5 3.6 16-3.7 0-5.4-1.5-5.4-1.5-.4 3.5 2.7 10.9 9.4 11.9-1.8 1-5.2.2-5.2.2.8 4.9 7.7 8.7 11.1 8.3-4.3 4.7-14.9 5.6-17.6 5C44.9 94.4 87.1 93.2 87.1 54a20 20 0 0 0 5.9-6.2c-4.7 2.2-6.9 1.9-6.9 1.9 3-1.1 5.3-6.6 5.3-6.6z"/></symbol></svg>