<svg xmlns="http://www.w3.org/2000/svg" width="96" height="96" viewBox="0 0 72 72"><path fill="#ece2d0" d="M43 39.9H27.3V13.7c0-.4.3-.7.6-.6 6 0 11.1 1.3 14.3.3.4-.2.8.1.8.6z"/><path fill="#582c4e" d="M35.4 43.3c-5.8 1.5-7.4 2.7-5.8 5.2.6-2.6 4.2-2.5 4.3-2s1.5 4.7 1.5 4.7 1.7-2.8 1.4-4.7 3.7-.6 4.3 2c1.6-2.5.1-3.7-5.7-5.2z"/><path fill="#694160" d="M21.1 23.5c1.5 8.5 15.2 11.6 14.2 21.6-12.1-2-15.8-7.6-14.2-21.6z"/><path fill="#694160" d="M49.6 23.5C48.1 32 34.4 35.1 35.4 45.1c12.1-2 15.8-7.6 14.2-21.6z"/><path fill="#582c4e" d="M35.3 24.1c-3.1 5.3-9 15.3 0 21 7.9-7.9 0-14.9 0-21z"/><path fill="#ece2d0" d="M34.6 9.3h-.7c1.3 2 1 4.2.5 6.6h.7c.1-2.4.5-4.6-.5-6.6z"/><path fill="#c05d77" d="M34.3 0c3.8 4.7 4.5 11.1 0 11.1-6.6-1.9 1.4-8 0-11.1z"/><path fill="#b38d97" d="M17.5 14.5c-12 8.8-18.8 27.2-1 36 18.2 6.3 22.9 9.3 23.4 18.2l.6 1.3c0-10.6-7.1-14.2-22.5-20.6s-16.2-22.2.2-34.8z"/><path fill="#582c4e" d="M28.1 54.2c-3.5-1.6-4.7 6-4.7 6 6.2-1 5.8-5.5 4.7-6zm-21-25.1c4.1-2.3-2.5-8.9-2.5-8.9-3.4 6.7 1.3 9.6 2.5 8.9zM12 20c.1-5.2 6.7-.4 7.9-.7-2.1 3.8-7.9 3.1-7.9.7zm4.2 29.4c-3-2 .1-6.6-.9-8 4.7 3.2 2.6 8.9.9 8zm-9.1-9.2c-.2-2.9-5.8-3.9-5.8-5.2-.9 2.3 4 8.3 5.8 5.2z"/><path fill="#b38d97" d="M53.3 13.3c12.1 8.8 18.8 27.2 1 36.1-18.2 6.2-22.9 9.2-23.4 18.1l-.6 1.3c0-10.5 7.1-14.2 22.5-20.5S69 26 52.7 13.4z"/><path fill="#582c4e" d="M42.7 53c3.5-1.5 4.7 6 4.7 6-6.2-1-5.8-5.5-4.7-6zm21-25.1c-4-2.3 2.5-8.9 2.5-8.9 3.4 6.7-1.2 9.6-2.5 8.9zm-4.9-9.1c-.1-5.2-6.7-.4-7.9-.7 2.1 3.8 7.9 3.2 7.9.7zm-4.2 29.5c3-2.1-.1-6.7 1-8.1-4.8 3.3-2.7 8.9-1 8.1zm9.1-9.3c.2-2.9 5.9-3.9 5.9-5.2.8 2.4-4.1 8.4-5.9 5.2z"/></svg>