<svg xmlns="http://www.w3.org/2000/svg" width="960" height="960" viewBox="0 0 720 720"><path fill="#ece2d0" d="M438.7 411H276.9V140.8a6.4 6.4 0 0 1 6.4-6.3c61.5.9 114 14 147.1 3.4a6.3 6.3 0 0 1 8.3 6z"/><path fill="#582c4e" d="M360.1 445.6h-.2c-59.6 14.9-75.4 27.6-58.9 53.6 6.3-26.6 43.1-26 44.4-20.9-3.2 20.3 14.6 48.8 14.6 48.8s17.8-28.5 14.6-48.8c1.3-5.1 38-5.7 44.4 20.9 16.5-26 .7-38.7-58.9-53.6z"/><path fill="#694160" d="M213.5 242.3c15.2 86.9 156 119.3 145.9 222-124.4-20.9-162.4-78-145.9-222z"/><path fill="#694160" d="M506.6 242.3c-15.2 86.9-156.1 119.3-145.9 222 124.3-20.9 162.4-78 145.9-222z"/><path fill="#582c4e" d="M359.4 248c-31.8 54.6-92.7 157.3 0 216.3 81.2-81.2 0-153.5 0-216.3z"/><path fill="#ece2d0" d="M351.8 95.8h-7c13.3 20.3 10.1 43.1 5.7 67.8h7c1.2-24.7 4.9-47.4-5.7-67.8z"/><path fill="#c05d77" d="M349.2 0c39.3 48.8 46.3 114.2 0 114.2-67.9-19.1 14.6-81.9 0-114.2z"/><path fill="#b38d97" d="M176.7 149C52.3 239.8-16.8 428.8 165.9 520.1c187.1 64.1 235.3 95.2 240.4 186.6l7 13.3c0-108.5-73.7-146-232.2-211.3C27 445.3 14.9 279.7 183 150.3z"/><path fill="#582c4e" d="M285.1 557.6c-35.9-16-48.2 61.5-48.2 61.5 63.5-10.1 59.7-56.4 48.2-61.5zM69.6 299.2c41.3-23.3-26.1-91.2-26.1-91.2-35.2 68.9 13 98.6 26.1 91.2zm50.2-93.5c.6-53.2 69.2-4.1 81.1-7.2-21.5 39.2-81.4 32.5-81.1 7.2zm42.9 303c-30.4-20.9 1.3-68.5-9.5-82.4 48.8 32.9 27.3 91.3 9.5 82.4zm-93.2-95.1c-2.6-29.8-60.3-40-60.3-53.3-8.9 24.1 41.9 85.6 60.3 53.3z"/><path fill="#b38d97" d="M544.2 137c124.3 90.7 193.5 279.7 10.8 371.1-187.2 64.1-235.4 95.1-240.4 186.5l-7 13.3c0-108.5 73.7-146 232.2-211.2 154.1-63.5 166.2-229-1.9-358.4z"/><path fill="#582c4e" d="M435.7 545.5c36-16 48.2 61.6 48.2 61.6-63.4-10.2-59.6-56.5-48.2-61.6zm215.6-258.3C610 263.9 677.4 196 677.4 196c35.2 68.8-13 98.6-26.1 91.2zM601 193.6c-.6-53.2-69.1-4-81-7.1 21.5 39.1 81.3 32.5 81 7.1zm-42.8 303.1c30.4-21-1.3-68.5 9.5-82.5-48.9 33-27.3 91.4-9.5 82.5zm93.2-95.2c2.5-29.8 60.3-39.9 60.3-53.3 8.8 24.1-41.9 85.7-60.3 53.3z"/></svg>