<svg id="Artwork" xmlns="http://www.w3.org/2000/svg" width="1110.6" height="1135" viewBox="0 0 1110.6 1135"><title>logo</title><path d="M678.6,648h-255V222.1a10,10,0,0,1,10.2-10c96.9,1.4,179.6,22,231.7,5.3a10,10,0,0,1,13.1,9.5Z" fill="#ece2d0"/><path d="M554.8,702.4h-.3c-93.9,23.7-118.8,43.7-92.9,84.6,10-42,68-41,70-33-5,32,23,77,23,77s28-45,23-77c2-8,60-9,70,33C673.6,746.1,648.7,726.1,554.8,702.4Z" fill="#582c4e"/><path d="M323.6,382c24,137,246,188,230,350C357.6,699,297.6,609,323.6,382Z" fill="#694160"/><path d="M785.7,382c-24,137-246,188-230,350C751.7,699,811.7,609,785.7,382Z" fill="#694160"/><path d="M553.6,391c-50,86-146,248,0,341C681.6,604,553.6,490,553.6,391Z" fill="#582c4e"/><path d="M541.6,151h-11c21,32,16,68,9,107h11C552.6,219,558.5,183.2,541.6,151Z" fill="#ece2d0"/><path d="M537.6,0c62,77,73,180,0,180C430.6,150,560.6,51,537.6,0Z" fill="#c05d77"/><path d="M265.6,235c-196,143-305,441-17,585,295,101,371,150,379,294l11,21c0-171-116.1-230.2-366-333-243-100-262-361,3-565Z" fill="#b38d97"/><path d="M436.6,879c-56.6-25.2-76,97-76,97C460.6,960,454.6,887,436.6,879Z" fill="#582c4e"/><path d="M96.9,471.7C162,435,55.6,328,55.6,328,.2,436.5,76.2,483.4,96.9,471.7Z" fill="#582c4e"/><path d="M176,324.2c1-83.8,109-6.3,127.8-11.2C269.9,374.7,175.5,364.2,176,324.2Z" fill="#582c4e"/><path d="M243.6,802c-48-33,2-108-15-130C305.6,724,271.6,816,243.6,802Z" fill="#582c4e"/><path d="M96.6,652c-4-47-95-63-95-84C-12.4,606,67.6,703,96.6,652Z" fill="#582c4e"/><path d="M845,216c196,143,305,441,17,585C567,902,491,951,483,1095l-11,21c0-171,116.1-230.2,366-333,243-100,262-361-3-565Z" fill="#b38d97"/><path d="M674,860c56.7-25.2,76,97,76,97C650,941,656,868,674,860Z" fill="#582c4e"/><path d="M1013.8,452.7C948.7,416,1055,309,1055,309,1110.5,417.5,1034.4,464.4,1013.8,452.7Z" fill="#582c4e"/><path d="M934.6,305.2c-1-83.8-109-6.3-127.8-11.2C840.7,355.7,935.1,345.2,934.6,305.2Z" fill="#582c4e"/><path d="M867,783c48-33-2-108,15-130C805,705,839,797,867,783Z" fill="#582c4e"/><path d="M1014,633c4-47,95-63,95-84C1123,587,1043,684,1014,633Z" fill="#582c4e"/></svg>