<svg xmlns="http://www.w3.org/2000/svg" width="3.6in" height="3.6in" viewBox="0 0 256 256"><path fill="#ece2d0" d="M156.4 146.2H99.2V50.7a2.2 2.2 0 0 1 2.2-2.3c21.8.3 40.3 5 52 1.2a2.3 2.3 0 0 1 3 2.1z"/><path fill="#582c4e" d="M128.6 158.4h-.1c-21 5.3-26.6 9.8-20.8 19 2.2-9.4 15.2-9.2 15.7-7.4-1.1 7.2 5.2 17.3 5.2 17.3s6.2-10.1 5.1-17.3c.5-1.8 13.5-2 15.7 7.4 5.9-9.2.3-13.7-20.8-19z"/><path fill="#694160" d="M76.7 86.5c5.4 30.8 55.2 42.2 51.6 78.6-43.9-7.4-57.4-27.6-51.6-78.6z"/><path fill="#694160" d="M180.4 86.5c-5.4 30.8-55.2 42.2-51.6 78.6 44-7.4 57.4-27.6 51.6-78.6z"/><path fill="#582c4e" d="M128.3 88.6c-11.2 19.3-32.7 55.6 0 76.5 28.8-28.7 0-54.3 0-76.5z"/><path fill="#ece2d0" d="M125.6 34.7h-2.4c4.7 7.2 3.6 15.3 2 24h2.5c.4-8.7 1.7-16.8-2.1-24z"/><path fill="#c05d77" d="M124.7.8c14 17.3 16.4 40.4 0 40.4-24-6.7 5.2-28.9 0-40.4z"/><path fill="#b38d97" d="M63.7 53.6c-44 32-68.4 98.9-3.8 131.2 66.2 22.7 83.2 33.7 85 66l2.5 4.7c0-38.4-26.1-51.6-82.1-74.7C10.8 158.3 6.5 99.8 66 54z"/><path fill="#582c4e" d="M102.1 198.1C89.4 192.4 85 219.8 85 219.8c22.5-3.6 21.1-19.9 17.1-21.7zm-76.3-91.4c14.6-8.3-9.2-32.3-9.2-32.3-12.5 24.4 4.6 34.9 9.2 32.3zm17.8-33.1c.2-18.8 24.5-1.5 28.7-2.5-7.6 13.8-28.8 11.5-28.7 2.5zm15.2 107.2c-10.8-7.4.4-24.3-3.4-29.2 17.3 11.7 9.7 32.3 3.4 29.2zm-33-33.7c-.9-10.5-21.3-14.1-21.3-18.8-3.2 8.5 14.8 30.3 21.3 18.8z"/><path fill="#b38d97" d="M193.7 49.3c44 32.1 68.4 98.9 3.8 131.3-66.2 22.6-83.2 33.6-85 65.9l-2.5 4.7c0-38.3 26.1-51.6 82.1-74.7s58.8-81-.6-126.8z"/><path fill="#582c4e" d="M155.3 193.8c12.8-5.7 17.1 21.8 17.1 21.8-22.4-3.6-21.1-20-17.1-21.8zm76.3-91.4c-14.6-8.2 9.2-32.2 9.2-32.2 12.5 24.3-4.6 34.8-9.2 32.2zm-17.8-33.1c-.2-18.8-24.4-1.4-28.7-2.5 7.7 13.8 28.8 11.5 28.7 2.5zm-15.2 107.2c10.8-7.4-.4-24.2 3.4-29.2-17.3 11.7-9.6 32.4-3.4 29.2zm33-33.6c.9-10.6 21.3-14.2 21.3-18.9 3.2 8.5-14.8 30.3-21.3 18.9z"/></svg>