<svg xmlns="http://www.w3.org/2000/svg" width="38.4" height="38.4" viewBox="0 0 32 32"><path fill="#ece2d0" d="M19.3 18.1h-7.1V6.2a.3.3 0 0 1 .3-.3c2.7 0 5 .6 6.4.1s.4.1.4.3z"/><path fill="#582c4e" d="M15.9 19.6h-.1c-2.6.6-3.3 1.2-2.5 2.3.2-1.1 1.9-1.1 1.9-.9a4.6 4.6 0 0 0 .7 2.2 4.9 4.9 0 0 0 .6-2.2c0-.2 1.7-.2 1.9.9.8-1.1.1-1.7-2.5-2.3z"/><path fill="#694160" d="M9.4 10.6c.7 3.9 6.9 5.3 6.4 9.8-5.4-.9-7.1-3.4-6.4-9.8z"/><path fill="#694160" d="M22.3 10.6c-.7 3.9-6.9 5.3-6.4 9.8 5.5-.9 7.1-3.4 6.4-9.8z"/><path fill="#582c4e" d="M15.8 10.9c-1.4 2.4-4.1 6.9 0 9.5 3.6-3.6 0-6.8 0-9.5z"/><path fill="#ece2d0" d="M15.5 4.2h-.3a3.9 3.9 0 0 1 .2 3h.3a5 5 0 0 0-.2-3z"/><path fill="#c05d77" d="M15.4 0c1.7 2.1 2 5 0 5s.6-3.6 0-5z"/><path fill="#b38d97" d="M7.8 6.5c-5.5 4-8.5 12.3-.5 16.4s10.4 4.1 10.6 8.2l.3.6c0-4.8-3.2-6.5-10.2-9.3S.7 12.3 8.1 6.6z"/><path fill="#582c4e" d="M12.6 24.5c-1.6-.7-2.2 2.7-2.2 2.7 2.8-.4 2.7-2.5 2.2-2.7zM3.1 13.1c1.8-1-1.2-4-1.2-4-1.5 3.1.6 4.4 1.2 4zM5.3 9c0-2.3 3-.2 3.6-.3-1 1.7-3.6 1.4-3.6.3zm1.9 13.4c-1.4-1 0-3.1-.4-3.7 2.1 1.5 1.2 4 .4 3.7zm-4.1-4.2C3 16.9.4 16.4.4 15.8c-.4 1.1 1.9 3.8 2.7 2.4z"/><path fill="#b38d97" d="M24 6c5.4 4 8.5 12.3.4 16.3s-10.3 4.2-10.5 8.2l-.4.6c0-4.8 3.3-6.4 10.3-9.3s7.3-10-.1-15.7z"/><path fill="#582c4e" d="M19.2 24c1.6-.7 2.1 2.7 2.1 2.7-2.8-.5-2.6-2.5-2.1-2.7zm9.5-11.4c-1.9-1 1.1-4 1.1-4 1.6 3-.6 4.3-1.1 4zm-2.2-4.1c-.1-2.3-3.1-.2-3.6-.3.9 1.7 3.6 1.4 3.6.3zm-1.9 13.3c1.3-.9-.1-3 .4-3.6-2.2 1.4-1.2 4-.4 3.6zm4.1-4.2c.1-1.3 2.6-1.7 2.6-2.3.4 1.1-1.8 3.8-2.6 2.3z"/></svg>