<svg xmlns="http://www.w3.org/2000/svg" width="19.2" height="19.2" viewBox="0 0 16 16"><path fill="#ece2d0" d="M9.5 9.4H6.1V3.6h.1a18.5 18.5 0 0 0 3.2.1.1.1 0 0 1 .1.1z"/><path fill="#582c4e" d="M7.9 10.1c-1.3.3-1.6.6-1.3 1.2s.9-.6 1-.5a1.8 1.8 0 0 0 .3 1.1 3 3 0 0 0 .3-1.1c0-.1.8-.1.9.5s0-.9-1.2-1.2z"/><path fill="#694160" d="M4.7 5.8c.4 1.9 3.4 2.5 3.1 4.7-2.6-.4-3.4-1.6-3.1-4.7z"/><path fill="#694160" d="M11 5.8c-.3 1.9-3.3 2.5-3.1 4.7 2.6-.4 3.4-1.6 3.1-4.7z"/><path fill="#582c4e" d="M7.8 5.9c-.6 1.2-1.9 3.4 0 4.6 1.8-1.7 0-3.2 0-4.6z"/><path fill="#ece2d0" d="M7.7 2.7h-.2a1.7 1.7 0 0 1 .2 1.4h.1a3.2 3.2 0 0 0-.1-1.4z"/><path fill="#c05d77" d="M7.6.6c.9 1.1 1 2.5 0 2.5s.3-1.8 0-2.5z"/><path fill="#b38d97" d="M4 3.8c-2.7 1.9-4.2 6-.3 7.9s5 2 5.1 4l.2.3c0-2.3-1.6-3.1-4.9-4.5s-3.6-4.9 0-7.7z"/><path fill="#582c4e" d="M6.3 12.5c-.8-.3-1.1 1.3-1.1 1.3s1.3-1.2 1.1-1.3zM1.7 7c.9-.5-.6-1.9-.6-1.9s.3 2.1.6 1.9zm1-2c.1-1.1 1.5-.1 1.8-.1s-1.8.7-1.8.1zm1 6.5c-.7-.5 0-1.5-.2-1.8s.5 2 .2 1.8zm-2-2.1C1.6 8.8.4 8.6.4 8.3s.9 1.8 1.3 1.1z"/><path fill="#b38d97" d="M11.8 3.6c2.6 1.9 4.1 5.9.2 7.9s-5 2-5.1 3.9l-.2.3c0-2.3 1.6-3.1 5-4.5s3.5-4.9-.1-7.6z"/><path fill="#582c4e" d="M9.5 12.3c.7-.4 1 1.3 1 1.3s-1.3-1.2-1-1.3zm4.6-5.5c-.9-.5.5-2 .5-2 .8 1.5-.3 2.1-.5 2zm-1.1-2c0-1.2-1.5-.1-1.7-.2s1.7.7 1.7.2zm-.9 6.4c.6-.4 0-1.4.2-1.7s-.6 1.9-.2 1.7zm2-2c0-.6 1.2-.9 1.2-1.1s-.8 1.8-1.2 1.1z"/></svg>