<svg xmlns="http://www.w3.org/2000/svg" width="38.4" height="38.4" viewBox="0 0 32 32"><path fill="#ece2d0" d="M22.1 24.8h-9.8V8.5a.4.4 0 0 1 .4-.4c3.7 0 6.9.8 8.9.2.2-.1.5.1.5.4z"/><path fill="#582c4e" d="M17.3 26.9c-3.6.9-4.5 1.6-3.6 3.2.4-1.6 2.6-1.6 2.7-1.3a5.4 5.4 0 0 0 .9 3 5.4 5.4 0 0 0 .9-3c.1-.3 2.3-.3 2.7 1.3 1-1.6 0-2.3-3.6-3.2z"/><path fill="#694160" d="M8.5 14.6c.9 5.2 9.4 7.2 8.8 13.4-7.5-1.3-9.8-4.7-8.8-13.4z"/><path fill="#694160" d="M26.2 14.6c-1 5.2-9.5 7.2-8.9 13.4 7.5-1.3 9.8-4.7 8.9-13.4z"/><path fill="#582c4e" d="M17.3 14.9c-1.9 3.3-5.6 9.5 0 13.1 4.9-4.9 0-9.3 0-13.1z"/><path fill="#ece2d0" d="M16.8 5.8h-.4c.8 1.2.6 2.6.3 4h.5c0-1.4.3-2.8-.4-4z"/><path fill="#c05d77" d="M16.7 0c2.3 2.9 2.7 6.9 0 6.9s.8-5 0-6.9z"/></svg>