<svg xmlns="http://www.w3.org/2000/svg" xmlns:xlink="http://www.w3.org/1999/xlink" width="471" height="698" viewBox="0 0 471 698"><title>logo</title><g id="candle-base"><ellipse cx="235.5" cy="213" rx="233.5" ry="26" fill="#694160"/><path d="M235.5,187C106.5,187,2,198.6,2,213V662c0,18.8,104.5,34,233.5,34S469,680.8,469,662V213C469,198.6,364.5,187,235.5,187Z" fill="#cdc0ca" stroke="#582c4e" stroke-miterlimit="10" stroke-width="7"/><path d="M2,211.8v0Z" fill="#582c4e"/><path d="M236,237S4.3,235,2,211.8V660s.9,12.5,45.9,20.3C11,654,14,501,14,501l1-230c42-6,23,49,5,36,7,37,32,6,32,6-24,75-8,107,23,104s25-42,7-42c7,25,0,30-14,27-26-13,23-54,15-78,20,20,10,31,1,31,17,17,36,16,40,1-40-1,9-76-33-80l5-5s92,17,140,17,140-17,140-17l5,5c-42,4,7,79-33,80,4,15,23,16,40-1-9,0-19-11,1-31-8,24,41,65,15,78-14,3-21-2-14-27-18,0-24,39,7,42s47-29,23-104c0,0,25,31,32-6-18,13-37-42,5-36l1,230s3,153-33.9,179.3c45-7.8,45.9-20.3,45.9-20.3V211.8C467.7,235,236,237,236,237Z" fill="#582c4e"/><path d="M470,211v0Z" fill="#582c4e"/></g><g id="Flame"><image width="143" height="226" transform="translate(180)" xlink:href="logo1.png"/><path d="M270.9,214.1a37.6,37.6,0,0,0,2.5-3.1c26.4-33.1,9.9-69.1,9.9-69.1-1.5,16.5-9.3,14.7-9.3,14.7,7.8-46.8-35.7-55.2-35.7-55.2,18.6,32.4-36.9,36-32.1,91.2h.2a37.2,37.2,0,0,0,64.5,21.4Z" fill="#8a6b83"/><path d="M261.7,218.1a16.3,16.3,0,0,0,1.7-2C281,194,270,170,270,170c-1,11-6.2,9.8-6.2,9.8C269,148.6,240,143,240,143c12.4,21.6-24.6,24-21.4,60.8h.1a24.8,24.8,0,0,0,24.7,22.4,24.5,24.5,0,0,0,18.3-8.1Z" fill="#bcabb8"/></g></svg>