<svg xmlns="http://www.w3.org/2000/svg" xmlns:xlink="http://www.w3.org/1999/xlink" width="468" height="818" viewBox="0 0 468 818"><title>logo</title><g id="candle-base"><ellipse cx="233.5" cy="335" rx="233.5" ry="26" fill="#694160"/><path d="M233.5,309C104.6,309,0,320.6,0,335V784c0,18.8,104.6,34,233.5,34S467,802.8,467,784V335C467,320.6,362.5,309,233.5,309Z" fill="#c05d77"/><path d="M0,333.8v0Z" fill="#582c4e"/><path d="M234,359S2.4,357,0,333.8V782s.9,12.5,46,20.3C9,776,12,623,12,623l1-230c42-6,23,49,5,36,7,37,32,6,32,6-24,75-8,107,23,104s25-42,7-42c7,25,0,30-14,27-26-13,23-54,15-78,20,20,10,31,1,31,17,17,36,16,40,1-40-1,9-76-33-80l5-5s92,17,140,17,140-17,140-17l5,5c-42,4,7,79-33,80,4,15,23,16,40-1-9,0-19-11,1-31-8,24,41,65,15,78-14,3-21-2-14-27-18,0-24,39,7,42s47-29,23-104c0,0,25,31,32-6-18,13-37-42,5-36l1,230s3,153-33.9,179.3c45-7.8,45.9-20.3,45.9-20.3V333.8C465.7,357,234,359,234,359Z" fill="#582c4e"/><path d="M468,333v.8A2.2,2.2,0,0,0,468,333Z" fill="#582c4e"/></g><g id="Flame"><image width="218" height="344" transform="translate(127)" xlink:href="logo1.png"/><path d="M265,325.7a42.2,42.2,0,0,0,3.8-4.6c40.2-50.4,15.1-105.2,15.1-105.2-2.3,25.1-14.1,22.4-14.1,22.4,11.8-71.2-54.3-84-54.3-84,28.3,49.3-56.2,54.8-48.9,138.8h.3A56.5,56.5,0,0,0,265,325.7Z" fill="#b38d97"/><path d="M251.1,331.9a37.6,37.6,0,0,0,2.5-3.1c26.8-33.6,10.1-70.1,10.1-70.1-1.5,16.7-9.4,14.9-9.4,14.9,7.9-47.5-36.3-56-36.3-56,18.9,32.9-37.4,36.5-32.5,92.5h.2a37.7,37.7,0,0,0,65.4,21.7Z" fill="#bcabb8"/><path d="M92.9,579.8H91.8a12.3,12.3,0,0,1-3.7,6.7,8.3,8.3,0,0,1-5,1.8,3.3,3.3,0,0,1-2.8-1.1c-1.1-1.3,0-4.3,2.8-6.2a15.7,15.7,0,0,1,7-2.3,4.2,4.2,0,0,0-1.9-3.6,10,10,0,0,0-4.9-1c-6.4,0-17.2,3.1-28.8,11.4C38.8,596.7,32.7,607.9,32.7,616a13,13,0,0,0,1.5,6.3c3,5.6,10.4,7.3,17.1,7.3a36.2,36.2,0,0,0,6.9-.6c14.3-2.9,22.4-9.9,25-12.9,1.1-1.3,2.1-1.6,2.4-1.1s0,1.2-1.2,2.4c-4.1,4-10.7,10.6-25.7,13.6a46.6,46.6,0,0,1-10.4,1.1c-8.2,0-15.5-2.2-19.4-7.2a15.6,15.6,0,0,1-3.1-9.8c0-6.5,3.4-15.1,14.1-24.1,15.1-12.8,32.9-18.6,42.9-18.6,3.1,0,5.5.5,6.8,1.6a5.2,5.2,0,0,1,2.4,4.6h1.2c.7,0,1,.4,1,.7S93.7,579.9,92.9,579.8Zm-8.8,2.5c-1.6,1.2-2.6,3-2.1,3.8s2.4.7,4.9-1A9.2,9.2,0,0,0,90,580,15.7,15.7,0,0,0,84.1,582.3Z" fill="#a0e5d3"/><path d="M112,623.9c-2.5,1.9-8.8,6.6-12.7,6.7a4.3,4.3,0,0,1-4.6-4.5A8.8,8.8,0,0,1,95,624c-3,3.5-6.6,6.5-10.1,6.5s-4.5-2.3-4.5-5.5,1.4-6.7,4.7-11c6.5-8.2,15.9-13.1,21-13.1,2.7,0,3.6,1.4,3.6,2.8v.5c2.3-2.3,2.2-2.4,3.8-2.4s.7,0,.7.3-4.8,6.9-8.2,12.2-5.7,9.3-5.7,12.2c0,1.1.5,1.5,1.2,1.5,2.5,0,7.6-3.8,10.3-6s7.6-6.5,8.9-8.3a1.3,1.3,0,0,1,.8-.3.7.7,0,0,1,.8.7,1.9,1.9,0,0,1-.4,1A80.8,80.8,0,0,1,112,623.9Zm-4-19.1a2.1,2.1,0,0,0-2.2-2.3c-2.7,0-8.1,3.1-13,8.7s-7.9,11.6-7.8,14.7c0,1.4.5,2.5,1.6,2.5,2.9,0,9.2-6.8,12.2-10.9s5.2-6.7,8.4-10.3A3.8,3.8,0,0,0,108,604.8Z" fill="#a0e5d3"/><path d="M144.7,623.1c-5.2,3.9-9.8,7.4-13.3,7.4s-5.3-1.5-5.5-4.5,2.9-7.1,6.1-9.8c6.8-5.6,11.7-10.8,9.8-12.5s-4.9.3-8.1,2.4-8,6-10.8,9.7c0,0-10.3,14.7-10.9,14.8s-2.8-.4-2.7-1,3.9-6.3,10.3-14.8,9-12.3,9.7-12.9,3.3-.4,3.4,0-1.1,2-3.1,4.8c2.1-1.6,7.9-5.9,12.2-5.1a3.4,3.4,0,0,1,3.1,3.5c0,2.2-1.5,5.1-3.5,7.4-5,5.6-9.1,11-9.6,14,0,.8.4,1.5,1.8,1.3s5.7-2.5,9.2-5.3a74.4,74.4,0,0,0,9.3-8.5c1.3-1.4,2.6-.3,1.5,1A67.1,67.1,0,0,1,144.7,623.1Z" fill="#a0e5d3"/><path d="M202,573.3c0,4.1-5,12-9.8,18.2-3.4,4.4-12.3,14.6-20.2,23-2.6,4.6-4.8,9.2-4.8,11.8,0,.9.4,1.7,1.3,1.7,4.5,0,17.6-12.4,19.2-14.2a.9.9,0,0,1,.8-.4.8.8,0,0,1,.7.8c0,1.2-6.1,6.5-10,9.5-2.1,1.6-8.5,6.9-13.1,6.9a4.3,4.3,0,0,1-4.4-4.5c0-.4.1-.9.1-1.3-4.6,4-7.5,5.9-9.8,5.9s-4.8-.8-4.8-5.7c0-2.8,1.3-6.9,6-12.4,7.1-8.4,15.9-11.7,20.1-11.7a3.5,3.5,0,0,1,2,.4c3.5-5.4,7.3-11.4,9.7-15.3,3.9-6.4,9.7-15.5,14.2-15.5a3.7,3.7,0,0,1,1.8.5A2.9,2.9,0,0,1,202,573.3Zm-29.3,29.3c-6.3,0-20.9,14.6-20.9,23.3,0,1.2.5,2.6,1.8,2.6s6.1-4,9.6-7.7c1.5-2.9,3.7-5.8,5-8s3.5-5.6,6.1-9.8A2.9,2.9,0,0,0,172.7,602.6ZM199,573.1c-3.5,0-15.7,23.1-19.4,29-.8,1.3-2.1,3.2-3.3,5.3,5.1-5.6,10.6-11.9,14.2-16.5s9.3-13.7,9.3-16.7a1,1,0,0,0-.5-1Z" fill="#a0e5d3"/><path d="M227.2,572.6c0,4.6-9.2,16.2-16.8,24.7s-15.5,15.4-19.5,17.9c-1.5,3.5-2.6,6.7-2.6,9a3.6,3.6,0,0,0,1.6,3.4c3.2,2.1,9.7-3.1,12.6-5.4a81.6,81.6,0,0,0,8.6-8c1.5-1.5,3.3-.8,1.4,1.3a87.5,87.5,0,0,1-10.3,9c-3.4,2.5-9.6,6.8-14.3,6.8a7.8,7.8,0,0,1-2.1-.4c-2-.7-2.9-2.5-2.9-4.8,0-8.7,12.1-25.6,15.5-30.4,10-14,21.3-26.5,27.2-25.2A1.9,1.9,0,0,1,227.2,572.6Zm-26.6,25c-2.5,3.9-5.6,9.4-8.2,14.5a130.5,130.5,0,0,0,17-16.2c8.4-9.3,18-21.5,14-22.4S206.3,588.4,200.6,597.6Z" fill="#a0e5d3"/><path d="M242.5,615.3a90.4,90.4,0,0,1-11.2,9.7c-3.4,2.4-10.7,6.4-16.6,6.4a8.3,8.3,0,0,1-4.6-1.2,6.3,6.3,0,0,1-3-5.8c0-4,2.6-9.1,7-13.7s13.4-9.8,18-9.8a4.3,4.3,0,0,1,2.7.7c2.7,2-4.5,9.3-9,12.5a31.8,31.8,0,0,1-11.9,5.3,11.9,11.9,0,0,0-.8,4,4.5,4.5,0,0,0,1.9,4.1,6.3,6.3,0,0,0,3.8,1.1c4.3,0,9.1-3,11.4-4.7a84.8,84.8,0,0,0,10.8-9.6c.8-1,1.6-1.1,1.8-.9S243.1,614.5,242.5,615.3Zm-23.1-4.8a24.5,24.5,0,0,0-4.7,7,31,31,0,0,0,10-4.8c4.4-3,10-8.6,8.7-9.8S225,604.8,219.4,610.5Z" fill="#a0e5d3"/><path d="M354.1,573c0,4.4-6.5,12.3-11.2,15.6a30.8,30.8,0,0,1-14.3,5.9c-4.9,8.4-8.9,15.4-16.3,22.6,6.1,5.5,12.9,10.3,22.4,10.6,4.2.1,7.6-1.1,8.8-2.1a2.7,2.7,0,0,1,1.8-.6c.4.1.5.6,0,1.1a16.4,16.4,0,0,1-13.5,5.7c-7.3-.3-14-5.4-21.2-13.1-7.9,7.1-17.4,12.1-27.2,12.6-11.7.5-19.5-5.8-19.5-13.5a8.2,8.2,0,0,1,.2-2.2c1.9-9.7,11.7-14.5,21-14.5a27.3,27.3,0,0,1,5,.5c9.1,1.9,15.1,8.3,19.2,12.5,6.8-5.8,10.5-12.2,15.2-19.2h-3.2c-1.2,0-1.6-.5-1.4-1s.7-1,1.6-1a30.8,30.8,0,0,0,4.3,0c3.9-5.6,9-12.5,14.2-17.4,3.2-2.9,7.7-5.6,10.8-5.6a3.5,3.5,0,0,1,2.3.7A2.9,2.9,0,0,1,354.1,573Zm-65.4,30.2a16.7,16.7,0,0,0-3.8-.3c-9.1,0-17.2,4.9-18.3,12.5-.9,5.7,4.2,10.5,13.4,10.5a21.1,21.1,0,0,0,3.5-.2,48.2,48.2,0,0,0,24.2-10.2C303.3,610.7,296.6,604.4,288.7,603.2Zm52.9-26.6a73,73,0,0,0-11.9,16,27.2,27.2,0,0,0,11.4-4.5c8.2-5.6,12-14.4,9.6-15.6S345.4,572.7,341.6,576.6Z" fill="#a0e5d3"/><path d="M364,623.9c-2.7,2-9.4,7.1-13.3,6.6s-4.4-3.7-3.8-6,4.7-8.5,6.8-11.2a141.9,141.9,0,0,1,10.1-11.2c.5-.3,2.9-.6,2.3.2s-4.8,6.8-8.1,12-5.3,8.6-5.7,11.5.9,2.5,2.6,1.9,6.6-3.9,8.9-5.7,7.6-6.5,8.9-8.3,2.5-.2,1.2,1.4A90.1,90.1,0,0,1,364,623.9Zm7.7-30.5c-1.3,2.3-3.2,4.1-4.3,4.1s-1-1.8.3-4.1,3.2-4,4.3-4S373,591.2,371.7,593.4Z" fill="#a0e5d3"/><path d="M408.9,573c0,6.1-9.6,19.4-15.4,26.7-8.5,10.8-16.6,17.6-21.6,20.6l-1.5,2.8c0,.3.3,4.1,2.9,4.9a6.2,6.2,0,0,0,2.3.4c3.2,0,6.5-2,11-5.5a88.3,88.3,0,0,0,9.8-8.9c1-1.1,2.7-.5,1.6.9a81,81,0,0,1-10.9,9.6c-2.5,1.7-8.2,6.4-13,6.2a8.8,8.8,0,0,1-6.3-2.7c-4.7,9.2-9.7,18.1-14.2,26.8,0,0-5.9,2.2-7.5,2.3s-.9-.2-.9-.5a1.4,1.4,0,0,1,.6-1,9.5,9.5,0,0,0,3.1-3.2l24.5-40.7c9.2-15.3,26.8-44.3,33.7-41.7A2.9,2.9,0,0,1,408.9,573Zm-20.1,18c-4.3,6.3-8.4,13.4-13.1,22l-1.5,3c5.1-3.6,12.3-10.5,17.8-17.4s16.3-23.3,13.4-25S393.2,584.6,388.8,591Z" fill="#a0e5d3"/><path d="M427.4,615.3c-1.5,1.9-6.9,6.6-11.1,9.7s-10.8,6.4-16.6,6.4a7.9,7.9,0,0,1-4.6-1.2,6.4,6.4,0,0,1-3.1-5.8c0-4,2.7-9.1,7-13.7,5.8-5.9,13.5-9.8,18.1-9.8a4.5,4.5,0,0,1,2.7.7c2.7,2-4.5,9.3-9.1,12.5a31.8,31.8,0,0,1-11.9,5.3,11.9,11.9,0,0,0-.8,4,4.6,4.6,0,0,0,2,4.1,6.3,6.3,0,0,0,3.8,1.1c4.2,0,9-3,11.4-4.7a101.1,101.1,0,0,0,10.8-9.6c.8-1,1.5-1.1,1.8-.9S428.1,614.5,427.4,615.3Zm-23-4.8a26.9,26.9,0,0,0-4.8,7,29.2,29.2,0,0,0,10-4.8c4.4-3,10-8.6,8.8-9.8S409.9,604.8,404.4,610.5Z" fill="#a0e5d3"/></g></svg>