<svg xmlns="http://www.w3.org/2000/svg" width="5in" height="5in" viewBox="0 0 360 360"><path fill="#ece2d0" d="M216.5 205.8h-80.1V71.9a3.1 3.1 0 0 1 3.1-3.1c30.5.4 56.5 6.9 72.9 1.6a3.2 3.2 0 0 1 4.1 3z"/><path fill="#582c4e" d="M177.6 223h-.1c-29.5 7.4-37.4 13.7-29.2 26.6 3.2-13.3 21.4-12.9 22-10.4-1.6 10 7.3 24.2 7.3 24.2s8.8-14.2 7.2-24.2c.6-2.5 18.8-2.9 22 10.4 8.2-12.9.3-19.2-29.2-26.6z"/><path fill="#694160" d="M104.9 122.2c7.6 43.1 77.4 59.1 72.3 110.1-61.6-10.4-80.5-38.7-72.3-110.1z"/><path fill="#694160" d="M250.2 122.2c-7.5 43.1-77.3 59.1-72.3 110.1 61.6-10.4 80.5-38.7 72.3-110.1z"/><path fill="#582c4e" d="M177.2 125c-15.7 27.1-45.9 78 0 107.3 40.3-40.3 0-76.1 0-107.3z"/><path fill="#ece2d0" d="M173.5 49.6H170c6.6 10 5 21.4 2.8 33.6h3.5c.6-12.2 2.5-23.5-2.8-33.6z"/><path fill="#c05d77" d="M172.2 2.1c19.5 24.2 23 56.6 0 56.6-33.6-9.4 7.2-40.6 0-56.6z"/><path fill="#b38d97" d="M86.7 76c-61.6 45-95.9 138.7-5.4 183.9 92.8 31.8 116.7 47.2 119.2 92.5l3.5 6.6c0-53.8-36.6-72.4-115.1-104.7-76.4-31.5-82.4-113.5.9-177.7z"/><path fill="#582c4e" d="M140.4 278.5c-17.8-7.9-23.8 30.5-23.8 30.5 31.4-5.1 29.5-28 23.8-30.5zM33.6 150.4c20.5-11.5-12.9-45.2-12.9-45.2-17.5 34.1 6.4 48.9 12.9 45.2zM58.5 104c.3-26.3 34.3-2 40.2-3.5-10.7 19.4-40.3 16.1-40.2 3.5zm21.3 150.3c-15.1-10.4.6-34-4.8-40.9 24.3 16.3 13.6 45.3 4.8 40.9zm-46.3-47.2c-1.2-14.8-29.8-19.8-29.8-26.4-4.4 11.9 20.7 42.4 29.8 26.4z"/><path fill="#b38d97" d="M268.9 70c61.6 45 95.8 138.7 5.3 184-92.8 31.7-116.7 47.1-119.2 92.4l-3.4 6.6c0-53.8 36.5-72.4 115-104.7 76.5-31.4 82.4-113.5-.9-177.7z"/><path fill="#582c4e" d="M215.1 272.5C232.9 264.6 239 303 239 303c-31.5-5-29.6-28-23.9-30.5zm106.8-128.1c-20.5-11.5 13-45.1 13-45.1 17.4 34.1-6.5 48.8-13 45.1zM297 98.1c-.3-26.4-34.2-2-40.2-3.6 10.7 19.4 40.4 16.2 40.2 3.6zm-21.2 150.2c15.1-10.4-.7-34 4.7-40.9-24.2 16.4-13.5 45.3-4.7 40.9zm46.2-47.2c1.2-14.7 29.9-19.8 29.9-26.4 4.4 12-20.8 42.5-29.9 26.4z"/></svg>