<svg xmlns="http://www.w3.org/2000/svg" width="19.2" height="19.2" viewBox="0 0 16 16"><path fill="#ece2d0" d="M10.2 12.4H5.4V4.3h.2c1.8 0 3.4.4 4.4.1s.2 0 .2.1z"/><path fill="#582c4e" d="M7.9 13.5c-1.8.4-2.3.8-1.8 1.6.2-.8 1.3-.8 1.3-.6a2.4 2.4 0 0 0 .5 1.4 2.5 2.5 0 0 0 .4-1.4c0-.2 1.1-.2 1.3.6.5-.8.1-1.2-1.7-1.6z"/><path fill="#694160" d="M3.5 7.4C3.9 10 8.2 11 7.9 14c-3.8-.6-4.9-2.3-4.4-6.6z"/><path fill="#694160" d="M12.3 7.4C11.8 10 7.6 11 7.9 14c3.7-.6 4.9-2.3 4.4-6.6z"/><path fill="#582c4e" d="M7.9 7.6c-1 1.6-2.8 4.7 0 6.4 2.4-2.4 0-4.6 0-6.4z"/><path fill="#ece2d0" d="M7.6 3h-.2a2.7 2.7 0 0 1 .2 2h.2a4.4 4.4 0 0 0-.2-2z"/><path fill="#c05d77" d="M7.5.1c1.2 1.5 1.4 3.4 0 3.4S8 1.1 7.5.1z"/></svg>