<svg xmlns="http://www.w3.org/2000/svg" width="1110.6" height="1135" viewBox="0 0 1110.6 1135"><path fill="#ece2d0" d="M678.6 648h-255V222.1a10 10 0 0 1 10.2-10c96.9 1.4 179.6 22 231.7 5.3a10 10 0 0 1 13.1 9.5z"/><path fill="#582c4e" d="M554.8 702.4h-.3c-93.9 23.7-118.8 43.7-92.9 84.6 10-42 68-41 70-33-5 32 23 77 23 77s28-45 23-77c2-8 60-9 70 33 26-40.9 1.1-60.9-92.8-84.6z"/><path fill="#694160" d="M323.6 382c24 137 246 188 230 350-196-33-256-123-230-350z"/><path fill="#694160" d="M785.7 382c-24 137-246 188-230 350 196-33 256-123 230-350z"/><path fill="#582c4e" d="M553.6 391c-50 86-146 248 0 341 128-128 0-242 0-341z"/><path fill="#ece2d0" d="M541.6 151h-11c21 32 16 68 9 107h11c2-39 7.9-74.8-9-107z"/><path fill="#c05d77" d="M537.6 0c62 77 73 180 0 180-107-30 23-129 0-180z"/><path fill="#b38d97" d="M265.6 235c-196 143-305 441-17 585 295 101 371 150 379 294l11 21c0-171-116.1-230.2-366-333-243-100-262-361 3-565z"/><path fill="#582c4e" d="M436.6 879c-56.6-25.2-76 97-76 97 100-16 94-89 76-97zM96.9 471.7C162 435 55.6 328 55.6 328 .2 436.5 76.2 483.4 96.9 471.7zM176 324.2c1-83.8 109-6.3 127.8-11.2-33.9 61.7-128.3 51.2-127.8 11.2zM243.6 802c-48-33 2-108-15-130 77 52 43 144 15 130zm-147-150c-4-47-95-63-95-84-14 38 66 135 95 84z"/><path fill="#b38d97" d="M845 216c196 143 305 441 17 585-295 101-371 150-379 294l-11 21c0-171 116.1-230.2 366-333 243-100 262-361-3-565z"/><path fill="#582c4e" d="M674 860c56.7-25.2 76 97 76 97-100-16-94-89-76-97zm339.8-407.3C948.7 416 1055 309 1055 309c55.5 108.5-20.6 155.4-41.2 143.7zm-79.2-147.5c-1-83.8-109-6.3-127.8-11.2 33.9 61.7 128.3 51.2 127.8 11.2zM867 783c48-33-2-108 15-130-77 52-43 144-15 130zm147-150c4-47 95-63 95-84 14 38-66 135-95 84z"/></svg>