<svg xmlns="http://www.w3.org/2000/svg" width="86.4" height="86.4" viewBox="0 0 64 64"><path fill="#ece2d0" d="M39.2 36.7H24.9V12.9c0-.4.2-.6.5-.6 5.5.1 10.1 1.2 13 .3.4-.1.8.1.8.5z"/><path fill="#582c4e" d="M32.2 39.8c-5.2 1.3-6.6 2.4-5.2 4.7.6-2.4 3.8-2.3 3.9-1.9s1.3 4.3 1.3 4.3 1.6-2.5 1.3-4.3 3.4-.5 3.9 1.9c1.5-2.3.1-3.4-5.2-4.7z"/><path fill="#694160" d="M19.3 21.8c1.3 7.7 13.8 10.5 12.9 19.6-11-1.8-14.4-6.9-12.9-19.6z"/><path fill="#694160" d="M45.2 21.8c-1.4 7.7-13.8 10.5-12.9 19.6 11-1.8 14.3-6.9 12.9-19.6z"/><path fill="#582c4e" d="M32.2 22.3c-2.8 4.8-8.2 13.9 0 19.1 7.1-7.2 0-13.5 0-19.1z"/><path fill="#ece2d0" d="M31.5 8.9h-.6c1.1 1.8.9 3.8.5 6h.6c.1-2.2.4-4.2-.5-6z"/><path fill="#c05d77" d="M31.3.4c3.4 4.3 4.1 10.1 0 10.1-6-1.7 1.3-7.2 0-10.1z"/><path fill="#b38d97" d="M16 13.6c-10.9 8-17 24.7-.9 32.7 16.5 5.7 20.8 8.4 21.2 16.5l.6 1.2c0-9.6-6.5-12.9-20.5-18.7s-14.6-20.2.2-31.6z"/><path fill="#582c4e" d="M25.6 49.6c-3.2-1.4-4.2 5.5-4.2 5.5 5.6-.9 5.2-5 4.2-5.5zm-19-22.8c3.6-2-2.3-8-2.3-8-3.1 6.1 1.1 8.7 2.3 8zm4.4-8.2c.1-4.7 6.1-.4 7.2-.7-1.9 3.5-7.2 2.9-7.2.7zm3.8 26.7c-2.7-1.8.1-6-.8-7.3 4.3 3 2.4 8.1.8 7.3zm-8.2-8.4c-.3-2.6-5.3-3.5-5.3-4.7-.8 2.2 3.6 7.6 5.3 4.7z"/><path fill="#b38d97" d="M48.5 12.5c11 8 17.1 24.7.9 32.8-16.5 5.6-20.7 8.4-21.2 16.4l-.6 1.2c0-9.6 6.5-12.9 20.5-18.6s14.7-20.3-.2-31.7z"/><path fill="#582c4e" d="M38.9 48.6c3.2-1.4 4.3 5.4 4.3 5.4-5.6-.9-5.3-5-4.3-5.4zm19-22.8c-3.6-2.1 2.3-8.1 2.3-8.1 3.1 6.1-1.1 8.7-2.3 8.1zm-4.4-8.3c-.1-4.7-6.1-.3-7.2-.6 1.9 3.4 7.2 2.9 7.2.6zm-3.8 26.8c2.7-1.9-.1-6.1.8-7.3-4.3 2.9-2.4 8-.8 7.3zm8.2-8.4c.3-2.7 5.4-3.6 5.4-4.7.7 2.1-3.7 7.5-5.4 4.7z"/></svg>